<?xml version="1.0" encoding="iso-8859-1"?>
<!-- Generator: Adobe Illustrator 19.0.0, SVG Export Plug-In . SVG Version: 6.00 Build 0)  -->
<svg version="1.1" id="Layer_1" xmlns="http://www.w3.org/2000/svg" xmlns:xlink="http://www.w3.org/1999/xlink" x="0px" y="0px"
	 viewBox="0 0 512 512" style="enable-background:new 0 0 512 512;" xml:space="preserve">
<g>
	<g>
		<path d="M494.054,39.305H339.808c-0.035,0-0.069,0-0.104,0h-89.381c-0.035,0-0.069,0-0.104,0h-129.19
			c-3.059,0-6.068,0.781-8.74,2.272L9.206,99.057C3.522,102.225,0,108.223,0,114.73v340.019c0,9.911,8.035,17.946,17.946,17.946
			h133.306h89.485h154.057c3.497,0,6.76-1,9.52-2.73l98.515-55.23c5.663-3.174,9.171-9.161,9.171-15.654V57.251
			C512,47.34,503.966,39.305,494.054,39.305z M133.306,436.802H35.893V130.844h97.413V436.802z M146.565,94.952H90.268
			l35.427-19.754h56.106L146.565,94.952z M222.791,436.802h-53.593V130.844h53.593V436.802z M236.051,94.952h-16.088l35.236-19.754
			h16.088L236.051,94.952z M376.848,436.802H258.684V130.844h118.165V436.802z M390.108,94.952h-80.659l35.236-19.754h80.659
			L390.108,94.952z M476.107,388.567l-63.366,35.525V123.411l63.366-35.524V388.567z"/>
	</g>
</g>
<g>
	<g>
		<path d="M332.142,368.464h-35.064c-9.911,0-17.946,8.035-17.946,17.946c0,9.911,8.035,17.946,17.946,17.946h35.064
			c9.911,0,17.946-8.035,17.946-17.946C350.088,376.499,342.053,368.464,332.142,368.464z"/>
	</g>
</g>
<g>
</g>
<g>
</g>
<g>
</g>
<g>
</g>
<g>
</g>
<g>
</g>
<g>
</g>
<g>
</g>
<g>
</g>
<g>
</g>
<g>
</g>
<g>
</g>
<g>
</g>
<g>
</g>
<g>
</g>
</svg>
